<svg version="1.1" id="Layer_1" xmlns="http://www.w3.org/2000/svg" xmlns:xlink="http://www.w3.org/1999/xlink" x="0px" y="0px"
	 width="100%" viewBox="0 0 1254 1254" enable-background="new 0 0 1254 1254" xml:space="preserve">
<path fill="#E1231D" opacity="1.000000" stroke="none" 
	d="
M320.031647,629.078186 
	C318.038544,628.985596 316.045441,628.813354 314.052307,628.812622 
	C291.225037,628.804321 268.397736,628.846436 245.570526,628.823975 
	C231.281998,628.809937 219.588470,617.330383 220.039825,603.098938 
	C223.166321,504.519592 255.504868,417.074615 320.640320,342.508362 
	C363.816498,293.080841 416.273315,256.442078 477.275970,232.262970 
	C521.107788,214.889740 566.601929,204.579773 613.835449,203.701431 
	C738.777283,201.378036 844.284973,246.087143 928.976501,337.716339 
	C985.129578,398.469208 1017.955811,471.045502 1029.712646,552.943481 
	C1031.954956,568.563171 1032.959839,584.393433 1033.850098,600.165283 
	C1034.830444,617.533142 1023.650635,628.755188 1006.159485,628.816895 
	C982.500732,628.900330 958.841858,628.936401 934.258423,628.973816 
	C931.501709,628.926331 929.669617,628.873169 927.837585,628.873108 
	C762.721252,628.867493 597.604980,628.852966 432.488647,628.873901 
	C395.002991,628.878662 357.517303,629.006836 320.031647,629.078186 
z"/>
<path fill="#8194A9" opacity="1.000000" stroke="none" 
	d="
M179.573029,926.627197 
	C179.652710,896.327698 179.732651,866.028076 179.811951,835.728516 
	C179.852036,820.410706 179.527832,805.081604 180.000275,789.777161 
	C181.284073,748.189575 213.671234,713.254395 255.070435,708.904663 
	C264.798187,707.882568 274.674500,708.183167 284.484802,708.062439 
	C295.971741,707.921143 307.461212,707.984375 319.887756,707.982788 
	C327.822968,708.016418 334.820038,708.035217 341.817078,708.034729 
	C539.253418,708.021606 736.689819,708.006531 934.126160,707.991699 
	C952.273621,708.019836 970.424255,708.281860 988.567871,708.031372 
	C1039.048950,707.334656 1075.155762,749.084290 1075.040771,794.512817 
	C1074.929932,838.301636 1075.074097,882.091187 1074.713379,926.398010 
	C1073.321289,926.941895 1072.322266,926.991089 1071.323120,926.991028 
	C776.231018,926.986328 481.138947,926.978943 186.046875,926.955933 
	C183.888916,926.955750 181.730988,926.741516 179.573029,926.627197 
z"/>
<path fill="#5F7489" opacity="1.000000" stroke="none" 
	d="
M179.137146,926.629272 
	C181.730988,926.741516 183.888916,926.955750 186.046875,926.955933 
	C481.138947,926.978943 776.231018,926.986328 1071.323120,926.991028 
	C1072.322266,926.991089 1073.321289,926.941895 1074.807129,926.843384 
	C1082.960449,926.759155 1090.630493,926.588074 1098.292725,926.763550 
	C1126.103760,927.400635 1147.485229,949.698364 1147.178833,977.612549 
	C1146.872681,1005.495789 1125.030151,1027.653320 1097.399170,1027.715210 
	C1041.399536,1027.840576 985.399475,1027.789185 929.399536,1027.788574 
	C672.899963,1027.785645 416.400360,1027.760010 159.900757,1027.798950 
	C141.768158,1027.801758 126.967407,1021.226196 116.743858,1006.111267 
	C105.671089,989.740601 104.331375,972.096130 113.083336,954.399841 
	C121.784309,936.806763 136.455078,927.511963 156.202911,926.778992 
	C163.693863,926.500916 171.201309,926.667480 179.137146,926.629272 
z"/>
<path fill="#324054" opacity="1.000000" stroke="none" 
	d="
M934.152100,707.524414 
	C736.689819,708.006531 539.253418,708.021606 341.817078,708.034729 
	C334.820038,708.035217 327.822968,708.016418 320.348236,707.997559 
	C319.913757,681.992859 319.957001,655.997314 320.015930,629.539917 
	C357.517303,629.006836 395.002991,628.878662 432.488647,628.873901 
	C597.604980,628.852966 762.721252,628.867493 927.837585,628.873108 
	C929.669617,628.873169 931.501709,628.926331 933.813843,629.051636 
	C934.255310,655.117981 934.216614,681.087463 934.152100,707.524414 
z"/>
</svg>